# xmcd CD database file
#
# Track frame offsets:
#	150
#	37543
#	60325
#	78021
#	108322
#	133294
#	159272
#	183581
#
# Disc length: 2840 seconds
#
# Revision: 0
# Processed by: cddbd v1.5.2PL0 Copyright (c) Steve Scherf et al.
# Submitted via: CDex 1.51
#
DISCID=540b1608
DTITLE=Art Lande - The Hidden Jewel
DYEAR=2002
DGENRE=Jazz
TTITLE0=Blue Glass
TTITLE1=Spanish Stairs
TTITLE2=Exploration
TTITLE3=Round Robin
TTITLE4=The Hidden Jewel
TTITLE5=Transformation
TTITLE6=Nora
TTITLE7=Contemplation
EXTD=YEAR: 2002
EXTT0=
EXTT1=
EXTT2=
EXTT3=
EXTT4=
EXTT5=
EXTT6=
EXTT7=
PLAYORDER=
